PathFileType	4	(X/Y/Z)	D:\TRACE\v60_Jaco2_6-2-23\BothDRS_Motion2_8-v60.trc
DataRate	CameraRate	NumFrames	NumMarkers	Units	OrigDataRate	OrigDataStartFrame	OrigNumFrames
100.00	100.00	      35	9	mm	100.00	3751	      7500
Frame#	Time	front left toe			Front right toe			aft left toe			aft right toe			Arm			FL body			FR body			AL Body			AR Body			
		X1	Y1	Z1	X2	Y2	Z2	X3	Y3	Z3	X4	Y4	Z4	X5	Y5	Z5	X6	Y6	Z6	X7	Y7	Z7	X8	Y8	Z8	X9	Y9	Z9	

3751	37.500	-174.28873	0.06309	-255.75897	225.67908	117.43052	-314.06165	-74.51879	138.91382	354.03702	285.12714	33.50267	317.90179	85.41573	1089.26599	-744.75958	-65.42146	567.31372	-415.47910	93.30955	562.27606	-434.66714	45.94110	573.69238	523.54449	203.27792	563.73145	509.28259	
3752	37.510	-174.41841	-0.21575	-256.06622	221.14534	110.64054	-315.89606	-78.36894	132.50900	352.13626	284.86996	33.84950	317.73471	83.96398	1088.41858	-745.77869	-66.38354	566.72784	-416.18765	93.12324	561.66772	-435.74133	45.89570	574.47430	523.09302	203.21431	564.26910	508.37326	
3753	37.520	-174.72163	-0.54451	-256.33505	217.43420	103.40658	-317.90286	-82.26864	124.76356	350.44952	284.68222	34.32910	317.38925	82.70816	1087.43262	-746.98126	-67.88542	566.60889	-416.60953	92.12464	561.28333	-436.75061	45.97225	574.88318	522.62482	202.13396	564.77057	506.54059	
3754	37.530	-174.91562	-0.71151	-256.56018	213.93707	95.45816	-319.77448	-85.89145	116.63708	349.18997	284.40628	34.73425	316.96436	81.45360	1086.55725	-748.43268	-69.05349	566.00006	-417.10815	89.57629	560.66931	-436.75601	45.80784	575.37225	521.76459	202.17159	565.30878	505.67383	
3755	37.540	-175.01390	-1.37686	-256.66592	210.50623	87.47565	-321.61826	-87.27281	106.90998	347.63174	284.36481	35.09511	316.57541	80.43282	1085.21436	-749.70856	-70.00617	565.47583	-417.21152	88.76126	560.02979	-437.30093	45.60641	575.88885	521.16840	202.92082	565.53265	505.83890	
3756	37.550	-175.05667	-2.32666	-256.72775	207.12369	78.77171	-323.55652	-90.22804	98.19055	346.47128	284.50830	35.59349	316.31750	79.73930	1083.84753	-750.96210	-71.43242	564.63080	-418.07025	87.20219	559.19678	-437.76654	45.79121	576.37927	520.59436	202.60028	565.60168	503.56927	
3757	37.560	-175.02914	-3.01210	-256.96130	203.35138	69.94285	-324.92569	-92.16218	89.59127	345.47864	284.69498	36.18552	316.19266	78.61941	1082.94751	-752.34393	-72.51776	564.27979	-418.56146	86.47971	558.65198	-438.69287	45.54292	576.86139	519.95233	201.88063	566.57379	502.54608	
3758	37.570	-175.20692	-3.15992	-257.06915	200.39502	61.07414	-325.85086	-93.42004	80.62593	344.55191	284.61441	36.51484	315.71802	77.54010	1082.13220	-753.33490	-73.29189	563.46228	-419.09534	86.72041	558.33301	-439.69769	45.34892	577.48352	519.20233	201.87830	566.80072	501.88293	
3759	37.580	-175.23862	-3.31598	-257.19965	198.89149	52.39206	-326.08829	-94.77045	71.97035	344.27359	284.64423	36.83319	315.53879	76.18267	1081.52161	-754.74548	-74.17132	563.13538	-419.51355	84.87343	557.67761	-440.91138	45.61429	578.23157	518.99786	203.98785	567.08337	503.23877	
3760	37.590	-175.25818	-3.69012	-257.37759	196.76286	43.37876	-326.53308	-95.60831	63.46001	343.91690	284.54156	37.06797	315.21036	74.87002	1080.54041	-756.26105	-74.98698	562.56256	-420.31839	84.22619	556.93359	-441.37256	45.52583	578.46417	517.70544	201.74135	568.26575	500.80356	
3761	37.600	-175.25905	-4.24163	-257.47208	196.43794	35.08950	-326.64081	-96.24156	55.33591	343.74313	284.61685	37.50475	314.85880	73.26836	1079.43262	-757.69635	-75.85211	562.00146	-420.96765	83.13572	556.45087	-442.13107	45.49402	578.94202	517.03857	201.95932	568.56677	500.32092	
3762	37.610	-175.08102	-4.84480	-257.73047	198.81404	27.99449	-326.30173	-96.67191	48.07762	343.49347	284.96265	38.00721	314.67767	72.40085	1078.32129	-758.88898	-76.93579	561.49670	-421.82001	82.47941	555.97943	-442.83978	45.67947	579.48517	516.04785	201.85785	569.11200	499.40381	
3763	37.620	-174.79553	-5.12000	-257.84711	197.16650	20.69814	-326.96085	-96.41383	41.55595	343.51550	285.34048	38.42181	314.52866	71.31614	1077.57556	-760.39447	-77.71085	561.25177	-422.53897	81.57509	555.62903	-443.73648	45.69733	579.86316	515.30341	202.36417	569.61127	498.31750	
3764	37.630	-174.37569	-5.49358	-257.99033	197.51558	14.15294	-327.59647	-96.74003	40.62214	340.95673	285.91342	38.96058	314.27432	70.24563	1076.82275	-761.86975	-78.81202	561.12439	-423.22220	80.61954	555.49695	-445.14310	45.87552	580.19531	514.45746	201.82899	570.26471	497.35645	
3765	37.640	-173.85768	-6.05817	-257.99402	199.75490	8.40461	-327.90762	-97.36064	39.15326	340.26245	286.34055	39.34055	314.09650	69.30930	1076.30701	-763.03296	-79.41266	560.38196	-424.12219	79.92075	554.60211	-445.62350	46.05415	581.65393	513.31445	202.18715	571.36823	496.02615	
3766	37.650	-173.26045	-6.58728	-258.05179	199.55878	1.17257	-328.59021	-97.09512	39.41448	341.34369	286.40262	39.86860	314.05795	68.26189	1075.97473	-764.66302	-80.14806	559.92322	-424.76758	78.16676	553.79462	-446.63718	46.57875	583.63763	512.08167	202.80338	572.95227	494.80670	
3767	37.660	-173.14249	-6.67612	-258.17804	196.99355	-7.20346	-329.57803	-95.88718	41.77539	341.05719	286.08276	40.03531	313.18210	66.80991	1075.39038	-767.42603	-81.10688	559.14545	-425.63840	77.76959	553.02496	-447.37750	47.04559	585.45221	511.21902	203.02872	574.75726	493.69409	
3768	37.670	-172.57765	-7.02128	-258.13895	197.30309	-14.14512	-332.95029	-95.10783	41.53558	340.96396	286.58154	40.60353	313.01587	65.84014	1073.91382	-770.32098	-81.85890	559.08142	-426.13538	77.03206	553.46649	-448.66150	47.41020	586.70123	510.27933	204.29399	576.62018	492.53110	
3769	37.680	-171.91736	-7.07832	-258.61002	201.07397	-12.65336	-331.71246	-94.94839	41.99881	340.66519	286.82190	40.83168	312.39243	65.03603	1071.87671	-772.40472	-82.98228	559.97876	-426.74664	76.17546	555.14771	-449.40433	48.25995	587.71039	510.09003	204.00938	577.88977	491.68958	
3770	37.690	-169.90465	-3.95985	-259.08383	200.42978	-12.69151	-331.58459	-94.37949	41.16175	339.95905	286.69531	44.39220	312.46008	63.95071	1070.65112	-773.18732	-83.55962	561.35608	-427.44598	75.04008	556.42389	-449.98621	48.59026	589.24890	508.64645	204.77614	579.25342	490.51282	
3771	37.700	-166.91148	0.10297	-256.27347	200.00710	-12.29832	-332.48450	-94.24352	40.29833	339.32700	284.00430	47.81661	317.04578	61.80428	1071.34619	-773.33344	-84.47612	562.05884	-428.29099	74.60842	557.15283	-451.46381	49.43625	590.71271	507.42990	205.10898	580.81317	489.41785	
3772	37.710	-162.72011	6.49223	-252.37852	200.84601	-12.52268	-332.08759	-93.68279	41.20079	339.38254	279.62625	57.71656	319.63263	59.13364	1073.53247	-774.00433	-85.20001	561.27081	-428.87595	73.80798	557.05981	-452.52411	49.52478	592.23260	506.74240	205.10953	582.76581	488.24170	
3773	37.720	-160.90952	15.90328	-251.59436	201.36995	-13.22256	-332.71158	-92.96219	41.22245	339.41748	276.92380	67.42155	320.51093	56.29523	1075.64209	-775.23859	-85.75993	559.75311	-429.45700	72.21647	555.61035	-452.14676	49.29090	593.71948	505.77826	204.97604	584.91943	487.29434	
3774	37.730	-159.13052	26.27287	-251.14417	201.70329	-13.86600	-332.45621	-92.88075	41.56041	339.15714	276.40591	80.65353	320.61026	53.41421	1075.93689	-775.94464	-85.80025	557.97845	-429.54910	72.19046	554.42676	-452.87012	49.36411	595.47015	505.31421	205.09427	586.76123	486.57663	
3775	37.740	-159.77986	38.30157	-251.96536	201.92274	-14.00028	-332.49307	-92.74191	41.55839	339.17584	279.24329	93.50836	318.60727	51.19563	1074.69885	-776.79828	-86.75106	557.48047	-430.04218	72.54491	553.66248	-453.59506	48.92856	596.19617	505.18893	204.81403	587.50262	486.38760	
3776	37.750	-162.25438	50.89779	-253.59460	202.76094	-14.00832	-332.20926	-92.48114	41.47015	339.15280	281.74908	107.18023	316.71292	49.60416	1072.00757	-778.02448	-86.76048	556.17657	-430.23489	71.94631	552.91229	-453.20203	48.71727	596.69635	504.78018	204.15796	588.40887	486.13074	
3777	37.760	-165.54561	62.87942	-255.09090	203.38396	-14.04706	-332.34454	-91.90104	41.38914	339.05737	284.20016	120.43209	313.60730	48.41264	1068.76184	-779.58130	-87.06831	554.89856	-430.21991	71.65882	552.10999	-453.39713	48.19709	596.94714	504.79749	204.30081	589.29639	485.97562	
3778	37.770	-168.13326	74.71498	-256.53940	203.91524	-14.38665	-332.53900	-91.21396	41.26215	338.91769	285.19894	132.85112	310.61249	47.30233	1065.37842	-780.48596	-87.58881	553.26471	-430.33051	71.67595	551.32642	-453.79642	47.64620	597.53998	504.43597	203.75130	590.61646	486.10211	
3779	37.780	-169.56020	85.98975	-258.44574	204.45229	-14.78005	-332.77267	-90.54618	41.16306	338.84073	287.34277	145.62378	308.40634	46.35739	1062.55334	-781.26642	-87.84973	551.39099	-430.48727	70.18153	549.57166	-453.16888	46.72641	598.65259	504.30661	202.44885	591.32086	484.31793	
3780	37.790	-169.82709	95.99477	-259.58664	205.08342	-14.89807	-332.63074	-90.21526	41.38743	338.84738	287.47629	157.23479	306.30859	45.02949	1060.75903	-782.19489	-88.51997	549.70551	-430.32422	69.82484	548.33105	-453.70538	46.75703	599.56964	504.21622	203.38383	593.09503	485.90463	
3781	37.800	-171.15700	104.79163	-260.52606	205.77708	-14.89281	-332.34756	-89.63667	41.65009	339.03738	285.88992	166.93164	304.67920	43.42164	1058.89185	-783.02991	-89.00904	547.96039	-430.36615	70.05605	547.07098	-454.02173	46.97074	600.52948	504.01279	202.10234	594.47308	484.68237	
3782	37.810	-172.55757	110.89854	-261.40402	206.23535	-14.79183	-332.19803	-88.98525	41.79320	339.01010	286.15924	174.35930	303.59488	41.66936	1056.97241	-783.57520	-89.62347	546.30853	-430.22641	69.50760	545.85284	-453.67114	46.28923	601.31812	504.15674	202.37885	595.52240	485.44205	
3783	37.820	-174.95901	114.34992	-261.90027	206.66368	-14.78778	-332.19049	-88.10199	41.49082	338.79224	285.03101	178.53485	302.88495	39.91684	1054.59753	-784.27008	-89.92259	544.86237	-430.35983	69.11977	544.82178	-453.84753	45.58295	601.81732	504.07401	201.81686	596.07166	483.92249	
3784	37.830	-177.42390	115.15923	-262.27713	207.20949	-14.88091	-332.16116	-87.77728	41.30721	338.74429	283.43219	179.46883	301.57379	37.55206	1052.48828	-784.76331	-90.37054	543.57568	-430.31235	68.46546	543.39563	-453.31161	44.73838	602.40796	503.98431	200.35597	597.17065	484.15326	
3785	37.840	-180.42780	113.12314	-262.54010	208.12428	-14.79918	-332.00229	-87.21219	41.17653	338.84631	281.83502	177.40100	300.17819	35.94549	1050.59302	-785.32123	-90.46635	542.00726	-430.49356	68.77317	542.58148	-453.70728	44.25767	602.80737	503.86328	199.63370	597.60809	483.56650	
